<svg width="100" height="125" xmlns="http://www.w3.org/2000/svg">

 <g>
  <title>background</title>
  <rect fill="none" id="canvas_background" height="402" width="582" y="-1" x="-1"/>
 </g>
 <g>
  <title>Layer 1</title>
  <path id="svg_1" d="m50,96.041c25.387,0 46.041,-20.654 46.041,-46.041s-20.654,-46.041 -46.041,-46.041c-25.387,0 -46.041,20.654 -46.041,46.041s20.654,46.041 46.041,46.041zm-18.325,-55.55c0.383,-0.383 1.002,-0.383 1.385,0l16.94,16.94l16.94,-16.939c0.382,-0.383 1.002,-0.383 1.385,0s0.383,1.002 0,1.385l-17.633,17.632c-0.191,0.191 -0.442,0.287 -0.692,0.287s-0.501,-0.096 -0.692,-0.287l-17.633,-17.633c-0.383,-0.383 -0.383,-1.002 0,-1.385z" fill="none"/>
  <path fill="#ffffff" id="svg_2" d="m49.308,59.509c0.191,0.191 0.442,0.287 0.692,0.287s0.501,-0.096 0.692,-0.287l17.633,-17.633c0.383,-0.383 0.383,-1.002 0,-1.385s-1.003,-0.383 -1.385,0l-16.94,16.94l-16.94,-16.94c-0.383,-0.383 -1.002,-0.383 -1.385,0s-0.383,1.002 0,1.385l17.633,17.633z"/>
  <path fill="#ffffff" id="svg_3" d="m50,98c26.467,0 48,-21.533 48,-48s-21.533,-48 -48,-48c-26.467,0 -48,21.533 -48,48s21.533,48 48,48zm0,-94.041c25.387,0 46.041,20.654 46.041,46.041s-20.654,46.041 -46.041,46.041c-25.387,0 -46.041,-20.654 -46.041,-46.041s20.654,-46.041 46.041,-46.041z"/>
 </g>
</svg>