<?xml version="1.0" encoding="UTF-8" standalone="no"?>
<svg width="149px" height="149px" viewBox="0 0 149 149" version="1.1" xmlns="http://www.w3.org/2000/svg" xmlns:xlink="http://www.w3.org/1999/xlink" xmlns:sketch="http://www.bohemiancoding.com/sketch/ns">
    <!-- Generator: Sketch 3.5.2 (25235) - http://www.bohemiancoding.com/sketch -->
    <title>drone</title>
    <desc>Created with Sketch.</desc>
    <defs></defs>
    <g id="drone" stroke="none" stroke-width="1" fill="none" fill-rule="evenodd" sketch:type="MSPage">
        <g id="Artboard-1" sketch:type="MSArtboardGroup">
            <g id="drone" sketch:type="MSLayerGroup">
                <path d="M31.0344828,77.5862069 L31.0344828,34.4827586 L117.241379,34.4827586 L117.241379,120.689655 L31.0344828,120.689655 L31.0344828,77.5862069 Z" id="Rectangle-1" fill="#B8DCD9" sketch:type="MSShapeGroup"></path>
                <path d="M34.4827586,68.9655172 C53.5270603,68.9655172 68.9655172,53.5270603 68.9655172,34.4827586 C68.9655172,15.4384569 53.5270603,0 34.4827586,0 C15.4384569,0 0,15.4384569 0,34.4827586 C0,53.5270603 15.4384569,68.9655172 34.4827586,68.9655172 Z" id="Oval-1" stroke="#FFFFFF" stroke-width="4" fill="#B8DCD9" sketch:type="MSShapeGroup"></path>
                <circle id="Oval-1" stroke="#FFFFFF" stroke-width="4" fill="#B8DCD9" sketch:type="MSShapeGroup" cx="115.517241" cy="34.4827586" r="34.4827586"></circle>
                <circle id="Oval-1" stroke="#FFFFFF" stroke-width="4" fill="#B8DCD9" sketch:type="MSShapeGroup" cx="34.4827586" cy="115.517241" r="34.4827586"></circle>
                <circle id="Oval-1" stroke="#FFFFFF" stroke-width="4" fill="#B8DCD9" sketch:type="MSShapeGroup" cx="115.517241" cy="115.517241" r="34.4827586"></circle>
                <ellipse id="Oval-5" stroke="#367671" fill="#FFFFFF" sketch:type="MSShapeGroup" cx="115.517241" cy="34.4827586" rx="17.2413793" ry="15.5172414"></ellipse>
                <ellipse id="Oval-5" stroke="#367671" fill="#FFFFFF" sketch:type="MSShapeGroup" cx="115.517241" cy="115.517241" rx="17.2413793" ry="15.5172414"></ellipse>
                <ellipse id="Oval-5" stroke="#367671" fill="#FFFFFF" sketch:type="MSShapeGroup" cx="34.4827586" cy="115.517241" rx="17.2413793" ry="15.5172414"></ellipse>
                <ellipse id="Oval-5" stroke="#367671" fill="#FFFFFF" sketch:type="MSShapeGroup" cx="34.4827586" cy="34.4827586" rx="17.2413793" ry="15.5172414"></ellipse>
            </g>
        </g>
    </g>
</svg>