<svg width="154" height="155" xmlns="http://www.w3.org/2000/svg" preserveAspectRatio="xMidYMid meet">

 <metadata id="metadata3234">Created by potrace 1.13, written by Peter Selinger 2001-2015image/svg+xml</metadata>
 <g>
  <title>background</title>
  <rect fill="none" id="canvas_background" height="402" width="582" y="-1" x="-1"/>
 </g>
 <g>
  <title>Layer 1</title>
  <g id="g3236" fill="#000000" transform="translate(0,155) scale(0.10000000149011612,-0.10000000149011612) ">
   <path fill="#ffffff" id="path3238" d="m631,1530c-249,-53 -459,-219 -561,-444c-182,-401 16,-877 431,-1033c178,-67 360,-67 538,0c415,156 613,632 431,1033c-90,200 -269,356 -485,424c-79,25 -277,36 -354,20zm311,-89c233,-60 411,-229 490,-466c19,-59 23,-91 23,-200c0,-117 -3,-139 -29,-219c-69,-209 -233,-373 -443,-442c-78,-26 -102,-29 -213,-29c-111,0 -135,3 -214,29c-227,75 -399,260 -457,496c-28,109 -23,270 11,370c78,232 255,400 484,460c98,26 249,26 348,1z"/>
   <path fill="#ffffff" id="path3240" d="m733,1388c-33,-40 -43,-216 -19,-348l11,-65l52,-5c46,-5 52,-3 57,15c12,43 6,232 -10,290c-25,100 -64,147 -91,113z"/>
   <path fill="#ffffff" id="path3242" d="m724,909c-83,-24 -121,-128 -78,-211c33,-64 135,-89 201,-48c103,62 80,228 -36,260c-41,11 -45,11 -87,-1z"/>
   <path fill="#ffffff" id="path3244" d="m258,825c-61,-17 -112,-47 -116,-68c-9,-44 165,-69 319,-48c47,7 90,16 96,19c6,4 13,30 14,57l3,50l-134,2c-86,1 -152,-3 -182,-12z"/>
   <path fill="#ffffff" id="path3246" d="m1033,828l-61,-10l-4,-51c-2,-29 -3,-54 -1,-57c9,-11 213,-11 273,-1c83,15 155,51 155,77c0,34 -50,48 -180,50c-66,2 -148,-2 -182,-8z"/>
   <path fill="#ffffff" id="path3248" d="m705,562c-3,-7 -5,-64 -5,-126c0,-291 123,-417 138,-140c4,85 -12,249 -26,270c-11,15 -101,12 -107,-4z"/>
  </g>
  <path id="svg_1" d="m11.5,110.5" opacity="0.5" stroke-width="1.5" stroke="#000" fill="#fff"/>
 </g>
</svg>