<svg width="1471" height="1500" xmlns="http://www.w3.org/2000/svg" preserveAspectRatio="xMidYMid meet">
 <metadata>Created by potrace 1.13, written by Peter Selinger 2001-2015</metadata>

 <g>
  <title>background</title>
  <rect fill="none" id="canvas_background" height="402" width="582" y="-1" x="-1"/>
 </g>
 <g>
  <title>Layer 1</title>
  <g id="svg_1" fill="#FFFFFF" transform="translate(0,1500) scale(0.10000000149011612,-0.10000000149011612) ">
   <path fill="#344953" id="svg_2" d="m114,14924c-13,-15 -24,-34 -24,-43c0,-10 -4,-21 -10,-27c-5,-5 -11,-22 -12,-37c-1,-15 -6,-27 -10,-27c-5,0 -8,-54 -7,-120c0,-66 5,-120 10,-120c5,0 9,-18 9,-40c0,-22 4,-40 8,-40c4,0 9,-11 10,-23c1,-13 8,-36 16,-52c8,-15 12,-34 9,-43c-4,-9 -2,-13 4,-9c5,3 15,-16 23,-45c7,-28 22,-69 33,-92c46,-94 61,-121 71,-128c6,-4 8,-8 3,-8c-4,0 -1,-10 7,-22c18,-27 18,-36 3,-63c-9,-16 -15,-92 -18,-225c-1,-33 8,-76 19,-97c7,-13 9,-23 5,-23c-4,0 -2,-5 5,-12c7,-7 12,-25 12,-40c0,-15 5,-28 10,-28c6,0 10,-9 10,-20c0,-11 4,-20 8,-20c4,0 14,-17 21,-37c8,-21 17,-40 20,-43c12,-10 31,-50 31,-65c0,-8 5,-15 10,-15c6,0 10,-9 10,-20c0,-11 3,-20 8,-20c8,0 32,-49 32,-67c0,-7 4,-13 9,-13c16,0 18,-34 3,-75c-19,-56 -33,-131 -36,-190c-1,-27 -4,-54 -7,-60c-5,-10 -5,-27 5,-103c11,-92 53,-211 97,-274c11,-14 19,-32 19,-40c0,-7 9,-20 20,-28c11,-8 20,-20 20,-27c0,-7 4,-13 9,-13c5,0 12,-12 17,-27c10,-36 11,-93 2,-93c-5,0 -8,-7 -8,-15c0,-8 4,-15 9,-15c4,0 8,-8 7,-17c-1,-27 26,-147 35,-157c5,-6 9,-17 9,-25c0,-8 6,-22 13,-30c14,-17 83,-173 80,-181c-1,-3 5,-9 13,-13c8,-5 12,-12 10,-16c-3,-4 3,-17 13,-27c10,-11 20,-25 22,-30c5,-13 64,-87 97,-120c12,-13 22,-28 22,-33c0,-6 6,-14 14,-18c8,-4 35,-27 59,-50c25,-23 51,-44 58,-45c7,-2 18,-7 24,-11c5,-5 24,-17 41,-27c34,-20 34,-20 21,-170c-1,-14 1,-30 5,-36c4,-5 10,-29 13,-52c2,-23 12,-58 20,-78c8,-19 14,-38 12,-42c-1,-4 9,-29 22,-55c13,-26 21,-51 18,-54c-3,-3 1,-12 9,-20c8,-8 12,-19 9,-24c-4,-5 -2,-9 3,-9c5,0 15,-12 23,-27c8,-16 22,-37 32,-47c9,-11 17,-26 17,-33c0,-7 5,-13 10,-13c6,0 10,-9 10,-20c0,-11 4,-20 9,-20c5,0 29,-28 55,-62c25,-35 64,-74 86,-88c22,-14 40,-28 40,-32c0,-5 6,-8 13,-8c8,0 22,-9 32,-20c10,-11 23,-20 28,-20c6,0 17,-7 26,-16c18,-17 153,-104 162,-104c9,0 20,-37 25,-90c3,-25 19,-73 35,-108c16,-35 29,-67 29,-72c0,-6 5,-10 10,-10c6,0 10,-5 10,-11c0,-6 6,-16 13,-23c6,-7 30,-34 51,-59c22,-26 43,-47 47,-47c19,0 173,-110 236,-168c39,-36 41,-41 36,-80c-4,-28 -2,-42 6,-42c6,0 11,-17 11,-40c0,-22 5,-40 10,-40c6,0 10,-11 10,-23c0,-13 3,-27 7,-31c4,-3 8,-12 9,-19c7,-53 129,-194 186,-218c15,-6 28,-15 28,-20c0,-5 7,-9 16,-9c9,0 27,-9 41,-20c14,-11 33,-20 42,-20c9,0 27,-9 41,-20c14,-11 30,-20 36,-20c11,0 13,-86 2,-106c-4,-9 -2,-86 2,-91c1,-2 4,-7 5,-13c1,-5 4,-13 5,-17c1,-5 2,-11 2,-14c-1,-4 31,-37 71,-73c40,-37 78,-73 86,-81c11,-10 15,-40 15,-107c1,-82 4,-98 28,-138c25,-43 57,-75 109,-110c52,-35 58,-46 54,-106c-2,-31 0,-65 5,-75c6,-10 13,-34 16,-55c3,-20 14,-46 24,-57c11,-11 26,-35 35,-53c8,-18 27,-42 42,-53c14,-12 22,-21 17,-21c-5,0 -3,-4 5,-9c9,-6 13,-31 14,-77c0,-38 4,-76 8,-84c4,-8 17,-37 30,-65c22,-47 32,-58 85,-104c19,-17 21,-27 18,-120c-2,-55 0,-101 5,-101c4,0 14,-25 21,-55c7,-30 19,-60 27,-66c7,-6 13,-17 13,-24c0,-7 7,-18 15,-25c9,-7 13,-15 10,-18c-9,-10 59,-63 120,-94c71,-36 75,-41 75,-95c0,-22 9,-69 19,-102c10,-34 17,-61 14,-61c-2,0 3,-7 11,-16c9,-8 14,-19 12,-23c-10,-16 82,-98 139,-125c119,-56 130,-63 129,-85c-1,-12 3,-21 7,-21c5,0 9,-13 9,-30c0,-16 5,-30 10,-30c6,0 10,-7 10,-15c0,-8 5,-15 10,-15c6,0 10,-7 10,-15c0,-8 5,-15 10,-15c6,0 10,-6 10,-12c0,-23 99,-116 167,-159c28,-17 29,-39 3,-67c-12,-12 -17,-22 -13,-22c4,0 1,-5 -7,-10c-8,-5 -15,-13 -15,-17c-1,-16 -18,-60 -46,-118c-33,-69 -37,-87 -49,-215c-11,-108 -24,-168 -39,-183c-6,-6 -34,-12 -63,-13c-52,-3 -133,-12 -173,-20c-11,-2 -56,-8 -100,-14c-44,-5 -114,-15 -155,-20c-41,-6 -93,-13 -115,-16c-22,-2 -51,-7 -63,-10c-13,-2 -43,-7 -65,-11c-61,-8 -149,-28 -258,-57c-52,-14 -113,-28 -135,-32c-21,-3 -57,-12 -79,-19c-45,-15 -167,-45 -205,-51c-14,-2 -36,-7 -50,-11c-14,-3 -27,-7 -30,-8c-13,-3 -177,-57 -190,-62c-8,-3 -19,-7 -25,-9c-34,-9 -100,-36 -105,-43c-3,-5 -53,-34 -112,-65c-58,-31 -123,-70 -143,-86c-20,-16 -45,-32 -56,-35c-10,-4 -19,-10 -19,-14c0,-5 -28,-25 -62,-45c-35,-20 -78,-50 -97,-66c-18,-17 -36,-30 -40,-30c-3,0 -21,-14 -39,-31c-18,-17 -44,-36 -59,-44c-14,-7 -44,-28 -66,-47c-57,-48 -347,-337 -382,-383c-16,-21 -40,-48 -52,-61c-13,-13 -23,-27 -23,-31c0,-4 -10,-20 -23,-35c-50,-60 -57,-68 -57,-73c0,-5 -34,-47 -62,-77c-10,-10 -15,-18 -10,-18c4,0 2,-4 -4,-8c-11,-7 -31,-39 -77,-124c-12,-21 -24,-38 -27,-38c-3,0 -12,-16 -20,-35c-8,-19 -17,-35 -22,-35c-4,0 -8,-7 -8,-15c0,-8 -9,-30 -20,-50c-11,-20 -20,-42 -20,-50c0,-8 -4,-15 -10,-15c-5,0 -10,-10 -10,-22c0,-12 -8,-30 -17,-40c-9,-10 -18,-29 -20,-40c-2,-12 -18,-54 -37,-92c-18,-39 -38,-91 -45,-116c-7,-25 -17,-55 -22,-68c-5,-13 -9,-34 -9,-47c0,-13 -5,-27 -10,-30c-6,-3 -10,-23 -10,-44c0,-21 -6,-44 -14,-50c-8,-7 -12,-20 -9,-30c3,-10 0,-22 -6,-25c-6,-4 -11,-25 -11,-46c0,-21 -5,-42 -10,-45c-6,-3 -10,-19 -10,-36c0,-16 -4,-29 -8,-29c-5,0 -8,-12 -7,-27c1,-16 -3,-37 -9,-48c-11,-23 -17,-42 -19,-67c-1,-10 -5,-18 -10,-18c-4,0 -6,-3 -3,-8c5,-8 -10,-97 -20,-122c-4,-8 -8,-26 -9,-40c-1,-14 -5,-43 -9,-66c-7,-38 -5,-42 28,-67c19,-15 41,-24 50,-21c13,5 56,123 56,156c0,19 60,197 81,241c11,22 19,46 19,55c0,10 9,28 20,42c11,14 20,31 20,38c0,8 9,26 19,40c10,15 19,29 19,32c0,11 27,67 49,102c13,21 23,43 23,49c0,6 8,23 19,37c10,15 23,44 29,65c6,21 19,46 29,55c18,17 29,34 67,105c11,21 28,46 38,57c10,11 16,20 13,20c-3,0 7,19 22,42c37,56 44,65 71,90c12,12 22,25 22,30c0,8 25,37 87,104c17,19 29,34 26,34c-4,0 50,54 118,120c160,155 158,154 197,176c17,10 32,21 32,25c0,8 127,99 138,99c4,0 22,14 41,30c18,17 37,30 42,30c4,0 14,6 21,13c17,17 134,77 149,77c7,0 26,11 43,24c17,12 46,31 65,41c32,16 45,25 75,52c14,12 99,45 171,66c22,6 42,14 45,17c5,5 145,55 180,65c38,10 136,49 147,57c7,6 40,13 73,15c46,4 68,1 97,-14c115,-59 308,-73 436,-33c24,8 33,4 74,-36c38,-36 64,-49 133,-70c126,-39 124,-38 149,-87c56,-110 173,-185 290,-185c56,-1 91,-23 91,-57c0,-8 4,-15 9,-15c5,0 13,-9 16,-20c3,-11 12,-20 20,-20c7,0 20,-6 27,-12c20,-20 119,-59 158,-64c38,-4 60,-26 60,-60c0,-13 5,-26 10,-29c6,-3 10,-19 10,-36c0,-16 4,-29 8,-29c5,0 20,-21 33,-46c22,-45 136,-169 189,-207c14,-10 51,-30 82,-45c35,-15 61,-34 64,-47c4,-11 6,-21 5,-23c-9,-13 77,-116 143,-171c50,-41 130,-79 181,-86c72,-10 85,-14 85,-31c0,-25 58,-136 88,-170c32,-35 162,-144 173,-144c5,0 34,-16 67,-35c38,-22 78,-36 113,-40c29,-4 59,-11 66,-17c7,-6 22,-42 34,-81c19,-65 20,-86 15,-321c-5,-263 -10,-339 -27,-446c-6,-36 -12,-81 -14,-100c-2,-19 -8,-57 -14,-85c-6,-27 -13,-61 -15,-75c-3,-14 -10,-45 -16,-70c-5,-25 -15,-72 -22,-105c-6,-33 -12,-62 -13,-65c-13,-46 -17,-61 -19,-88c-1,-17 -5,-35 -9,-38c-4,-4 -7,-18 -7,-31c0,-13 -4,-23 -10,-23c-5,0 -10,-9 -10,-20c0,-11 -6,-20 -12,-20c-9,0 -9,-3 1,-9c12,-8 12,-12 2,-25c-8,-9 -11,-16 -7,-16c3,0 0,-16 -8,-35c-8,-19 -12,-35 -9,-35c3,0 0,-6 -6,-14c-7,-8 -14,-27 -17,-41c-5,-28 -39,-115 -73,-190c-41,-87 -61,-135 -61,-144c0,-5 -4,-11 -10,-13c-5,-2 -11,-12 -13,-23c-2,-11 -9,-30 -15,-42c-7,-13 -9,-23 -5,-23c4,0 3,-4 -3,-8c-10,-7 -48,-80 -49,-94c0,-4 -7,-15 -15,-25c-9,-10 -22,-33 -29,-50c-7,-18 -17,-33 -21,-33c-4,0 -10,-8 -13,-17c-7,-21 -56,-106 -66,-113c-14,-11 -40,-68 -34,-74c3,-3 1,-6 -5,-6c-7,0 -12,-7 -12,-15c0,-8 -4,-15 -8,-15c-5,0 -15,-12 -23,-27c-50,-99 -124,-186 -247,-292c-28,-24 -50,-49 -49,-55c5,-25 32,-40 82,-44c46,-4 54,-2 69,19c9,13 16,20 16,15c0,-4 11,6 25,23c38,45 96,101 104,101c4,0 30,24 58,53c27,28 59,59 71,67c12,8 22,20 22,27c0,7 5,13 11,13c12,0 129,120 129,133c0,4 12,20 28,36c42,45 62,70 62,79c0,4 14,21 30,39c17,18 30,34 30,37c0,6 24,37 48,62c7,7 13,17 12,21c0,4 6,15 13,23c7,8 20,31 30,50c10,19 38,62 62,95c24,33 44,66 44,73c1,6 5,12 9,12c8,0 43,54 43,67c0,5 8,16 16,26c9,9 12,17 8,17c-4,0 -1,8 8,18c10,10 14,22 10,25c-3,4 1,15 9,24c19,21 85,179 100,238c5,22 13,49 18,60c4,11 13,33 19,48c6,15 11,39 11,52c0,14 5,25 10,25c6,0 10,11 10,23c0,13 8,39 17,58c10,19 19,45 21,59c2,13 7,29 11,35c4,5 9,28 10,50c2,22 6,45 9,50c4,6 7,19 8,30c1,11 6,38 12,60c6,22 14,67 18,100c9,66 8,64 17,85c3,8 8,49 11,90c6,80 14,135 23,160c8,19 12,98 16,287c2,84 6,156 10,159c3,3 4,29 2,58c-2,28 -7,89 -11,136c-3,47 -8,117 -10,155c-6,129 -15,207 -23,224c-4,9 -9,36 -9,61c-2,71 -13,143 -27,170c-6,14 -13,47 -14,74c-1,27 -6,56 -10,65c-5,9 -8,27 -7,41c1,14 -2,30 -7,37c-5,6 -10,24 -11,40c-2,15 -6,35 -9,43c-7,17 -17,60 -24,108c-3,17 -9,32 -14,32c-5,0 -9,13 -9,29c0,17 -4,32 -8,35c-4,2 -9,24 -11,48c-1,23 -5,45 -9,48c-4,3 -9,19 -11,35c-1,17 -7,35 -13,42c-5,6 -11,22 -12,35c-2,13 -6,30 -9,38c-3,8 -8,31 -11,50c-18,111 -27,172 -32,230c-5,62 -4,67 18,76c41,19 192,65 243,74c44,8 77,17 162,45c13,4 23,11 23,15c0,4 16,11 36,15c20,3 44,10 53,15c9,5 57,22 107,39c51,17 127,47 170,67c227,107 344,166 344,174c0,5 17,14 38,20c49,16 185,93 229,130c7,5 15,10 18,10c4,0 12,6 19,13c7,6 30,26 51,42c21,17 47,38 57,48c10,9 21,17 26,17c4,0 15,8 23,18c9,9 40,37 70,62c30,24 91,80 135,125c175,172 167,167 221,160c26,-4 68,-8 93,-10c25,-2 47,-4 50,-5c15,-6 86,4 160,21c47,11 90,20 95,20c6,1 21,9 35,18c28,19 94,51 105,51c5,0 31,16 60,35c29,18 76,47 106,62c64,34 107,61 133,85c11,10 26,18 33,18c8,0 12,4 9,9c-3,5 8,14 24,21c17,7 30,17 30,22c0,5 4,7 9,3c5,-3 17,2 25,11c9,8 16,12 16,7c0,-4 4,-2 8,4c7,11 107,69 192,111c19,9 37,20 40,23c3,3 22,12 43,18c20,7 37,17 37,22c0,6 4,8 8,5c4,-2 27,9 51,25c24,16 50,29 57,29c7,0 19,6 26,13c12,11 36,22 123,54c22,8 47,20 55,27c8,7 30,13 49,15c19,2 46,7 59,12c14,5 75,16 136,24c61,9 127,18 146,22c73,13 525,1 650,-17c36,-5 97,-12 135,-15c39,-4 84,-10 100,-15c17,-5 57,-11 90,-14c33,-3 92,-12 130,-20c99,-20 186,-29 290,-29c139,0 186,20 330,138c35,28 41,117 11,158c-21,29 -21,29 -1,44c21,16 72,15 335,-8c69,-6 172,-11 230,-10c135,1 399,42 433,68c7,6 42,22 80,38c37,15 67,31 67,35c0,4 8,10 18,12c11,3 23,23 32,49c7,24 17,48 22,54c15,17 8,72 -13,99c-14,18 -16,26 -7,27c7,0 20,2 28,4c8,2 51,11 95,21c44,9 93,23 108,31c16,8 36,16 45,18c10,2 59,15 110,29c50,13 92,23 92,20c0,-2 13,2 30,11c16,8 38,15 50,15c12,0 47,13 78,29c54,28 108,46 125,43c12,-3 142,65 156,82c8,9 31,26 52,38c22,12 39,25 39,30c0,4 6,8 13,8c6,0 26,11 42,25c17,13 35,28 40,32c6,5 26,22 46,38c20,17 48,39 63,49c63,45 171,150 193,187c10,16 22,29 28,29c11,0 71,59 137,135c24,28 46,52 51,53c4,2 7,10 7,18c0,8 5,14 11,14c5,0 7,5 4,10c-3,6 -2,10 3,10c5,0 25,25 43,56c19,31 42,64 52,72c9,9 17,22 17,29c0,7 5,13 10,13c6,0 10,5 10,11c0,5 13,27 29,47c44,57 67,151 41,167c-5,3 -10,14 -10,23c0,9 -12,25 -26,35c-25,19 -27,18 -112,-9c-48,-15 -110,-38 -139,-52c-28,-13 -57,-24 -65,-26c-7,-1 -17,-4 -23,-8c-5,-3 -59,-32 -120,-63c-162,-85 -238,-126 -255,-140c-8,-7 -28,-19 -45,-27c-44,-22 -74,-40 -124,-72c-24,-15 -49,-29 -55,-30c-6,-1 -17,-5 -23,-9c-19,-12 -16,1 8,34c11,16 18,29 14,29c-3,0 6,16 21,35c14,19 23,35 19,35c-4,0 -2,6 4,14c28,34 37,137 17,189c-32,81 -107,106 -174,57c-32,-24 -206,-199 -284,-285c-27,-31 -60,-59 -98,-85c-12,-8 -34,-26 -49,-40c-77,-70 -106,-93 -160,-128c-64,-40 -118,-71 -126,-71c-3,-1 -19,-8 -35,-16c-17,-9 -30,-12 -30,-8c0,5 -4,3 -8,-2c-12,-16 -255,-133 -288,-138c-17,-3 -41,-10 -53,-16c-11,-7 -21,-9 -21,-7c0,3 -11,1 -25,-4c-14,-5 -36,-12 -48,-14c-12,-3 -47,-10 -77,-16c-30,-6 -75,-13 -100,-16c-25,-3 -61,-8 -80,-11c-19,-3 -44,-7 -55,-8c-11,-1 -85,-14 -165,-28c-80,-14 -181,-28 -225,-31c-44,-3 -134,-15 -200,-26c-66,-11 -136,-22 -155,-25c-19,-2 -71,-10 -115,-18c-61,-12 -100,-13 -160,-6c-44,5 -150,11 -235,14c-85,2 -166,7 -180,10c-14,3 -77,8 -140,11c-124,6 -158,8 -290,18c-218,17 -299,20 -485,20c-211,1 -256,-3 -352,-29c-10,-2 -34,-9 -53,-14c-19,-5 -55,-18 -80,-29c-25,-11 -59,-22 -75,-26c-69,-15 -91,-19 -110,-18c-11,1 -40,-6 -65,-15c-25,-8 -61,-19 -80,-24c-93,-21 -127,-31 -147,-44c-11,-8 -63,-28 -115,-46c-51,-17 -100,-37 -108,-45c-9,-8 -21,-10 -29,-5c-11,7 -11,15 0,45c7,20 16,36 19,36c3,0 6,29 5,65c0,36 3,65 6,65c10,0 48,80 43,93c-2,7 0,35 6,62c16,77 22,177 12,200c-5,11 -16,40 -23,65c-7,25 -18,59 -25,75c-7,17 -12,34 -12,38c0,5 -12,24 -27,43c-14,19 -24,34 -20,34c3,0 -14,18 -37,40c-24,22 -46,40 -50,40c-5,0 -8,8 -8,17c0,9 -3,14 -6,11c-3,-3 -19,7 -37,23c-17,16 -41,32 -52,35c-11,4 -42,22 -69,41c-28,19 -63,37 -78,40c-15,3 -28,10 -28,15c0,5 -4,6 -10,3c-6,-3 -10,-2 -10,3c0,9 -80,52 -99,52c-7,0 -26,8 -44,17c-18,9 -43,19 -57,21c-14,2 -34,9 -45,16c-11,7 -65,16 -120,19c-55,4 -122,12 -150,20c-56,15 -142,13 -255,-4c-65,-10 -101,-21 -215,-65c-11,-4 -22,-8 -25,-8c-18,-3 -90,-40 -90,-46c0,-4 -8,-10 -17,-14c-10,-3 -40,-21 -68,-41c-27,-20 -59,-41 -69,-48c-47,-30 -206,-178 -206,-191c0,-8 -73,-75 -82,-76c-7,0 -26,-14 -62,-45c-6,-5 -26,-18 -43,-28l-31,-17l-90,60c-49,33 -104,73 -122,90c-18,16 -34,30 -36,30c-6,0 -74,61 -143,128c-36,34 -68,62 -73,62c-4,0 -8,4 -8,9c0,5 -15,25 -32,43c-57,60 -136,168 -123,168c3,0 -3,9 -12,19c-28,31 -39,45 -45,61c-3,8 -29,47 -58,85c-28,39 -63,89 -76,113c-13,23 -36,63 -51,90c-15,26 -26,50 -25,55c1,4 -1,7 -6,7c-4,0 -18,18 -32,40c-14,22 -28,40 -32,40c-5,0 -8,9 -8,20c0,11 -3,20 -8,20c-4,0 -18,18 -32,40c-14,22 -28,40 -32,40c-5,0 -8,9 -8,19c0,11 -4,21 -9,23c-8,3 -65,89 -64,98c0,3 -11,23 -26,45c-15,22 -33,53 -41,68c-8,16 -27,41 -42,58c-15,16 -28,33 -28,38c0,5 -4,11 -8,13c-10,4 -72,94 -72,104c0,4 -16,26 -35,50c-19,23 -35,46 -35,51c0,4 -10,20 -23,35c-12,14 -30,36 -39,47c-10,12 -18,26 -18,31c0,6 -4,10 -10,10c-5,0 -10,6 -10,13c0,7 -9,18 -20,25c-11,7 -20,17 -20,23c0,6 -12,23 -27,39c-16,16 -39,43 -53,61c-14,18 -29,37 -35,43c-5,6 -22,27 -36,46c-15,19 -37,46 -49,60c-12,14 -43,52 -68,85c-26,33 -60,74 -77,91c-16,16 -46,51 -65,77c-19,25 -43,49 -52,52c-10,4 -18,12 -18,20c0,8 -9,17 -20,20c-11,3 -20,10 -20,14c0,4 -8,16 -17,27c-10,11 -40,46 -68,79c-27,33 -68,79 -90,102c-91,94 -135,143 -130,143c6,0 -174,180 -278,278c-37,35 -67,67 -67,72c0,5 -9,12 -20,15c-11,3 -20,12 -20,20c0,8 -9,17 -20,20c-11,3 -20,13 -20,21c0,8 -4,14 -8,14c-4,0 -51,42 -104,93c-52,50 -139,133 -193,182c-54,50 -124,115 -155,145c-249,238 -407,387 -500,470c-102,91 -460,438 -460,446c0,2 -14,17 -31,32c-80,71 -127,120 -122,126c4,3 2,6 -4,6c-17,0 -213,183 -269,250c-33,40 -153,150 -164,150c-6,0 -10,4 -10,10c0,5 -10,20 -22,33c-42,45 -68,79 -68,88c0,5 -4,9 -10,9c-5,0 -10,5 -10,11c0,6 -61,71 -135,145c-74,74 -135,135 -135,138c0,4 -40,51 -77,92c-13,14 -23,28 -23,33c0,4 -38,47 -85,96c-47,48 -85,92 -85,98c0,6 -3,8 -6,4c-4,-3 -27,17 -53,45c-25,29 -60,67 -78,87c-17,19 -38,46 -45,60c-7,14 -21,32 -30,39c-10,7 -18,17 -18,22c0,8 -32,47 -83,101c-9,11 -17,21 -17,24c0,6 -4,12 -51,68c-17,20 -29,37 -25,37c3,0 -13,18 -34,39c-22,22 -40,44 -40,50c0,6 -4,11 -10,11c-5,0 -10,9 -10,20c0,11 -4,20 -9,20c-5,0 -11,8 -14,18c-10,32 -42,76 -92,131c-74,80 -75,81 -88,82c-7,0 -27,2 -45,5c-26,3 -38,-2 -58,-22z"/>
   <path fill="#344953" id="svg_3" d="m13520,880c0,-5 5,-10 10,-10c6,0 10,5 10,10c0,6 -4,10 -10,10c-5,0 -10,-4 -10,-10z"/>
   <path fill="#344953" id="svg_4" d="m13765,873c-11,-26 -6,-66 11,-83c14,-13 17,-13 30,4c7,11 11,22 8,25c-4,3 -9,0 -11,-6c-8,-22 -23,-14 -23,11c0,13 7,27 16,30c14,5 14,8 0,21c-19,19 -22,19 -31,-2z"/>
   <path fill="#344953" id="svg_5" d="m13830,836c0,-31 5,-56 10,-56c6,0 11,10 11,23c1,15 3,17 6,5c5,-20 30,-31 38,-18c4,7 13,6 25,0c22,-12 46,-4 54,16c6,16 -10,19 -19,4c-3,-5 -11,-10 -17,-10c-6,0 -6,6 2,15c10,12 10,19 2,27c-9,9 -18,6 -37,-12l-25,-23l0,22c0,18 -4,21 -21,16c-18,-6 -20,-4 -15,13c4,11 2,23 -4,27c-6,4 -10,-13 -10,-49z"/>
   <path fill="#344953" id="svg_6" d="m14312,878c-16,-16 -15,-73 2,-87c10,-9 16,-8 26,4c11,13 15,13 21,3c5,-7 22,-13 39,-13c31,0 36,5 21,21c-5,5 -11,27 -14,49c-3,34 -5,37 -12,18c-4,-13 -12,-23 -17,-23c-5,0 -20,-12 -33,-26c-27,-29 -35,-13 -10,19c13,18 11,47 -4,47c-4,0 -12,-5 -19,-12z"/>
   <path fill="#344953" id="svg_7" d="m13624,863c-12,-19 0,-60 20,-75c12,-8 36,9 36,24c0,6 -7,5 -15,-2c-12,-10 -16,-9 -22,5c-4,11 0,22 9,29c13,9 13,13 2,24c-17,15 -17,15 -30,-5z"/>
   <path fill="#344953" id="svg_8" d="m13376,853c-9,-9 -7,-83 2,-83c21,0 53,34 50,52c-3,21 -40,42 -52,31z"/>
   <path fill="#344953" id="svg_9" d="m13443,834c-6,-17 6,-46 23,-51c21,-6 37,15 30,41c-7,30 -43,36 -53,10z"/>
   <path fill="#344953" id="svg_10" d="m13514,820c-6,-20 -7,-37 -2,-39c15,-5 20,6 16,41l-4,33l-10,-35z"/>
   <path fill="#344953" id="svg_11" d="m13573,842c-16,-2 -23,-10 -23,-27c0,-13 5,-27 10,-30c6,-3 10,1 10,11c0,13 4,11 20,-7l19,-24l-6,40c-3,22 -6,40 -7,40c-1,1 -11,-1 -23,-3z"/>
   <path fill="#344953" id="svg_12" d="m14055,830c-9,-27 13,-54 30,-40c9,8 15,8 20,0c9,-15 35,7 35,31c0,30 -20,32 -21,2c-2,-23 -2,-24 -6,-5c-5,27 -11,28 -30,5c-14,-17 -14,-17 -9,-1c3,10 1,20 -4,23c-5,3 -12,-4 -15,-15z"/>
   <path fill="#344953" id="svg_13" d="m14155,829c-8,-24 16,-55 34,-45c6,4 11,20 11,37c0,22 -5,29 -19,29c-11,0 -23,-9 -26,-21z"/>
   <path fill="#344953" id="svg_14" d="m14225,842c-9,-9 -6,-62 4,-62c5,0 11,9 14,20c3,13 11,18 20,14c19,-7 29,8 13,21c-12,11 -42,15 -51,7z"/>
   <path fill="#344953" id="svg_15" d="m13380,753c-33,-12 -50,-37 -50,-73c0,-42 19,-64 71,-81c42,-15 61,-28 53,-40c-8,-14 -22,-11 -45,12c-26,26 -79,18 -79,-13c0,-28 55,-76 95,-84c88,-16 142,43 105,116c-16,32 -30,43 -70,57c-60,21 -66,38 -10,29c54,-8 84,7 69,35c-19,35 -95,58 -139,42z"/>
   <path fill="#344953" id="svg_16" d="m13682,753c-19,-4 -23,-9 -18,-26c14,-58 18,-155 7,-162c-20,-11 -23,0 -30,87l-6,83l-44,3l-44,3l8,-103c4,-57 11,-111 16,-120c28,-53 131,-61 178,-14l25,25l-13,101c-17,140 -14,135 -79,123z"/>
   <path fill="#344953" id="svg_17" d="m13807,744c-3,-11 -9,-74 -13,-141c-7,-133 -10,-126 52,-137l32,-5l6,59l7,60l39,0c67,0 96,47 70,114c-14,37 -47,54 -121,61c-60,6 -68,5 -72,-11z"/>
   <path fill="#344953" id="svg_18" d="m14042,743c-16,-3 -22,-9 -18,-20c3,-8 6,-61 6,-117c0,-67 4,-107 13,-117c9,-13 29,-15 95,-11l83,4l-3,42l-3,41l-42,-2c-24,-2 -43,2 -43,7c0,6 14,10 30,10c31,0 36,11 24,57c-4,15 -15,23 -38,26c-25,3 -23,4 12,5c47,2 58,16 48,57c-6,24 -10,25 -74,24c-37,-1 -77,-4 -90,-6z"/>
   <path fill="#344953" id="svg_19" d="m14256,625c-20,-141 -19,-145 41,-145c29,0 33,3 38,38c4,20 7,44 9,52c2,13 20,-21 47,-88c8,-20 14,-23 42,-17c48,11 48,12 23,68l-23,52l20,27c16,22 18,33 11,59c-13,46 -49,67 -124,75l-65,6l-19,-127z"/>
   <path fill="#344953" id="svg_20" d="m13490,443c-18,-23 -21,-36 -16,-71c6,-42 5,-42 -20,-36c-17,4 -29,2 -34,-6c-12,-20 -30,-2 -30,30c0,22 5,29 21,32c31,4 49,35 29,48c-25,16 -69,11 -90,-10c-14,-14 -20,-33 -20,-66c0,-37 5,-51 29,-75c37,-36 65,-37 100,-1c28,27 28,27 57,10c39,-24 56,-23 82,5c26,28 29,84 7,126c-25,50 -82,56 -115,14z"/>
   <path fill="#344953" id="svg_21" d="m13920,370l0,-100l35,0c34,0 35,1 35,37l0,38l25,-38c27,-40 35,-43 66,-27c19,11 18,12 -6,48c-16,24 -21,40 -15,46c16,16 11,55 -10,76c-15,15 -33,20 -75,20l-55,0l0,-100z"/>
   <path fill="#344953" id="svg_22" d="m13636,373c-3,-48 -3,-90 1,-94c5,-4 33,-10 64,-14l56,-7l7,33c5,29 8,31 19,16c21,-28 72,-32 96,-8c32,32 28,83 -10,126c-58,66 -126,37 -117,-50c5,-42 4,-45 -18,-45c-23,0 -24,4 -24,59c0,61 -7,71 -49,71c-15,0 -19,-13 -25,-87z"/>
   <path fill="#344953" id="svg_23" d="m14094,452c-9,-5 -7,-31 5,-97l18,-90l-31,-3c-77,-6 -116,-14 -111,-23c4,-5 -24,-9 -67,-10c-66,-1 -70,-2 -38,-11c44,-12 153,-5 158,10c2,8 28,12 68,12l64,0l-5,68c-11,135 -25,169 -61,144z"/>
   <path fill="#344953" id="svg_24" d="m14189,403c-1,-32 -2,-71 -3,-88c-1,-26 3,-30 27,-33c20,-3 27,1 27,15c1,17 1,17 11,1c6,-12 22,-18 44,-18l35,0l0,90l0,90l-30,0c-24,0 -30,-4 -31,-22l0,-23l-9,23c-7,16 -18,22 -40,22c-30,0 -30,0 -31,-57z"/>
   <path fill="#344953" id="svg_25" d="m14373,426c-23,-20 -28,-32 -28,-71c0,-37 5,-51 24,-66c50,-41 111,-12 111,53c0,21 -5,28 -19,28c-11,0 -26,3 -34,6c-9,3 -17,-1 -20,-10c-4,-13 -5,-12 -3,1c1,14 9,17 39,15c31,-2 37,0 37,16c0,24 -31,52 -58,52c-11,0 -34,-11 -49,-24z"/>
  </g>
 </g>
</svg>