<?xml version="1.0" standalone="no"?>
<!DOCTYPE svg PUBLIC "-//W3C//DTD SVG 20010904//EN"
 "http://www.w3.org/TR/2001/REC-SVG-20010904/DTD/svg10.dtd">
<svg version="1.0" xmlns="http://www.w3.org/2000/svg"
 width="1471.000000pt" height="1500.000000pt" viewBox="0 0 1471.000000 1500.000000"
 preserveAspectRatio="xMidYMid meet">
<metadata>
Created by potrace 1.13, written by Peter Selinger 2001-2015
</metadata>
<g transform="translate(0.000000,1500.000000) scale(0.100000,-0.100000)"
fill="#FFFFFF" stroke="none">
<path d="M114 14924 c-13 -15 -24 -34 -24 -43 0 -10 -4 -21 -10 -27 -5 -5 -11
-22 -12 -37 -1 -15 -6 -27 -10 -27 -5 0 -8 -54 -7 -120 0 -66 5 -120 10 -120
5 0 9 -18 9 -40 0 -22 4 -40 8 -40 4 0 9 -11 10 -23 1 -13 8 -36 16 -52 8 -15
12 -34 9 -43 -4 -9 -2 -13 4 -9 5 3 15 -16 23 -45 7 -28 22 -69 33 -92 46 -94
61 -121 71 -128 6 -4 8 -8 3 -8 -4 0 -1 -10 7 -22 18 -27 18 -36 3 -63 -9 -16
-15 -92 -18 -225 -1 -33 8 -76 19 -97 7 -13 9 -23 5 -23 -4 0 -2 -5 5 -12 7
-7 12 -25 12 -40 0 -15 5 -28 10 -28 6 0 10 -9 10 -20 0 -11 4 -20 8 -20 4 0
14 -17 21 -37 8 -21 17 -40 20 -43 12 -10 31 -50 31 -65 0 -8 5 -15 10 -15 6
0 10 -9 10 -20 0 -11 3 -20 8 -20 8 0 32 -49 32 -67 0 -7 4 -13 9 -13 16 0 18
-34 3 -75 -19 -56 -33 -131 -36 -190 -1 -27 -4 -54 -7 -60 -5 -10 -5 -27 5
-103 11 -92 53 -211 97 -274 11 -14 19 -32 19 -40 0 -7 9 -20 20 -28 11 -8 20
-20 20 -27 0 -7 4 -13 9 -13 5 0 12 -12 17 -27 10 -36 11 -93 2 -93 -5 0 -8
-7 -8 -15 0 -8 4 -15 9 -15 4 0 8 -8 7 -17 -1 -27 26 -147 35 -157 5 -6 9 -17
9 -25 0 -8 6 -22 13 -30 14 -17 83 -173 80 -181 -1 -3 5 -9 13 -13 8 -5 12
-12 10 -16 -3 -4 3 -17 13 -27 10 -11 20 -25 22 -30 5 -13 64 -87 97 -120 12
-13 22 -28 22 -33 0 -6 6 -14 14 -18 8 -4 35 -27 59 -50 25 -23 51 -44 58 -45
7 -2 18 -7 24 -11 5 -5 24 -17 41 -27 34 -20 34 -20 21 -170 -1 -14 1 -30 5
-36 4 -5 10 -29 13 -52 2 -23 12 -58 20 -78 8 -19 14 -38 12 -42 -1 -4 9 -29
22 -55 13 -26 21 -51 18 -54 -3 -3 1 -12 9 -20 8 -8 12 -19 9 -24 -4 -5 -2 -9
3 -9 5 0 15 -12 23 -27 8 -16 22 -37 32 -47 9 -11 17 -26 17 -33 0 -7 5 -13
10 -13 6 0 10 -9 10 -20 0 -11 4 -20 9 -20 5 0 29 -28 55 -62 25 -35 64 -74
86 -88 22 -14 40 -28 40 -32 0 -5 6 -8 13 -8 8 0 22 -9 32 -20 10 -11 23 -20
28 -20 6 0 17 -7 26 -16 18 -17 153 -104 162 -104 9 0 20 -37 25 -90 3 -25 19
-73 35 -108 16 -35 29 -67 29 -72 0 -6 5 -10 10 -10 6 0 10 -5 10 -11 0 -6 6
-16 13 -23 6 -7 30 -34 51 -59 22 -26 43 -47 47 -47 19 0 173 -110 236 -168
39 -36 41 -41 36 -80 -4 -28 -2 -42 6 -42 6 0 11 -17 11 -40 0 -22 5 -40 10
-40 6 0 10 -11 10 -23 0 -13 3 -27 7 -31 4 -3 8 -12 9 -19 7 -53 129 -194 186
-218 15 -6 28 -15 28 -20 0 -5 7 -9 16 -9 9 0 27 -9 41 -20 14 -11 33 -20 42
-20 9 0 27 -9 41 -20 14 -11 30 -20 36 -20 11 0 13 -86 2 -106 -4 -9 -2 -86 2
-91 1 -2 4 -7 5 -13 1 -5 4 -13 5 -17 1 -5 2 -11 2 -14 -1 -4 31 -37 71 -73
40 -37 78 -73 86 -81 11 -10 15 -40 15 -107 1 -82 4 -98 28 -138 25 -43 57
-75 109 -110 52 -35 58 -46 54 -106 -2 -31 0 -65 5 -75 6 -10 13 -34 16 -55 3
-20 14 -46 24 -57 11 -11 26 -35 35 -53 8 -18 27 -42 42 -53 14 -12 22 -21 17
-21 -5 0 -3 -4 5 -9 9 -6 13 -31 14 -77 0 -38 4 -76 8 -84 4 -8 17 -37 30 -65
22 -47 32 -58 85 -104 19 -17 21 -27 18 -120 -2 -55 0 -101 5 -101 4 0 14 -25
21 -55 7 -30 19 -60 27 -66 7 -6 13 -17 13 -24 0 -7 7 -18 15 -25 9 -7 13 -15
10 -18 -9 -10 59 -63 120 -94 71 -36 75 -41 75 -95 0 -22 9 -69 19 -102 10
-34 17 -61 14 -61 -2 0 3 -7 11 -16 9 -8 14 -19 12 -23 -10 -16 82 -98 139
-125 119 -56 130 -63 129 -85 -1 -12 3 -21 7 -21 5 0 9 -13 9 -30 0 -16 5 -30
10 -30 6 0 10 -7 10 -15 0 -8 5 -15 10 -15 6 0 10 -7 10 -15 0 -8 5 -15 10
-15 6 0 10 -6 10 -12 0 -23 99 -116 167 -159 28 -17 29 -39 3 -67 -12 -12 -17
-22 -13 -22 4 0 1 -5 -7 -10 -8 -5 -15 -13 -15 -17 -1 -16 -18 -60 -46 -118
-33 -69 -37 -87 -49 -215 -11 -108 -24 -168 -39 -183 -6 -6 -34 -12 -63 -13
-52 -3 -133 -12 -173 -20 -11 -2 -56 -8 -100 -14 -44 -5 -114 -15 -155 -20
-41 -6 -93 -13 -115 -16 -22 -2 -51 -7 -63 -10 -13 -2 -43 -7 -65 -11 -61 -8
-149 -28 -258 -57 -52 -14 -113 -28 -135 -32 -21 -3 -57 -12 -79 -19 -45 -15
-167 -45 -205 -51 -14 -2 -36 -7 -50 -11 -14 -3 -27 -7 -30 -8 -13 -3 -177
-57 -190 -62 -8 -3 -19 -7 -25 -9 -34 -9 -100 -36 -105 -43 -3 -5 -53 -34
-112 -65 -58 -31 -123 -70 -143 -86 -20 -16 -45 -32 -56 -35 -10 -4 -19 -10
-19 -14 0 -5 -28 -25 -62 -45 -35 -20 -78 -50 -97 -66 -18 -17 -36 -30 -40
-30 -3 0 -21 -14 -39 -31 -18 -17 -44 -36 -59 -44 -14 -7 -44 -28 -66 -47 -57
-48 -347 -337 -382 -383 -16 -21 -40 -48 -52 -61 -13 -13 -23 -27 -23 -31 0
-4 -10 -20 -23 -35 -50 -60 -57 -68 -57 -73 0 -5 -34 -47 -62 -77 -10 -10 -15
-18 -10 -18 4 0 2 -4 -4 -8 -11 -7 -31 -39 -77 -124 -12 -21 -24 -38 -27 -38
-3 0 -12 -16 -20 -35 -8 -19 -17 -35 -22 -35 -4 0 -8 -7 -8 -15 0 -8 -9 -30
-20 -50 -11 -20 -20 -42 -20 -50 0 -8 -4 -15 -10 -15 -5 0 -10 -10 -10 -22 0
-12 -8 -30 -17 -40 -9 -10 -18 -29 -20 -40 -2 -12 -18 -54 -37 -92 -18 -39
-38 -91 -45 -116 -7 -25 -17 -55 -22 -68 -5 -13 -9 -34 -9 -47 0 -13 -5 -27
-10 -30 -6 -3 -10 -23 -10 -44 0 -21 -6 -44 -14 -50 -8 -7 -12 -20 -9 -30 3
-10 0 -22 -6 -25 -6 -4 -11 -25 -11 -46 0 -21 -5 -42 -10 -45 -6 -3 -10 -19
-10 -36 0 -16 -4 -29 -8 -29 -5 0 -8 -12 -7 -27 1 -16 -3 -37 -9 -48 -11 -23
-17 -42 -19 -67 -1 -10 -5 -18 -10 -18 -4 0 -6 -3 -3 -8 5 -8 -10 -97 -20
-122 -4 -8 -8 -26 -9 -40 -1 -14 -5 -43 -9 -66 -7 -38 -5 -42 28 -67 19 -15
41 -24 50 -21 13 5 56 123 56 156 0 19 60 197 81 241 11 22 19 46 19 55 0 10
9 28 20 42 11 14 20 31 20 38 0 8 9 26 19 40 10 15 19 29 19 32 0 11 27 67 49
102 13 21 23 43 23 49 0 6 8 23 19 37 10 15 23 44 29 65 6 21 19 46 29 55 18
17 29 34 67 105 11 21 28 46 38 57 10 11 16 20 13 20 -3 0 7 19 22 42 37 56
44 65 71 90 12 12 22 25 22 30 0 8 25 37 87 104 17 19 29 34 26 34 -4 0 50 54
118 120 160 155 158 154 197 176 17 10 32 21 32 25 0 8 127 99 138 99 4 0 22
14 41 30 18 17 37 30 42 30 4 0 14 6 21 13 17 17 134 77 149 77 7 0 26 11 43
24 17 12 46 31 65 41 32 16 45 25 75 52 14 12 99 45 171 66 22 6 42 14 45 17
5 5 145 55 180 65 38 10 136 49 147 57 7 6 40 13 73 15 46 4 68 1 97 -14 115
-59 308 -73 436 -33 24 8 33 4 74 -36 38 -36 64 -49 133 -70 126 -39 124 -38
149 -87 56 -110 173 -185 290 -185 56 -1 91 -23 91 -57 0 -8 4 -15 9 -15 5 0
13 -9 16 -20 3 -11 12 -20 20 -20 7 0 20 -6 27 -12 20 -20 119 -59 158 -64 38
-4 60 -26 60 -60 0 -13 5 -26 10 -29 6 -3 10 -19 10 -36 0 -16 4 -29 8 -29 5
0 20 -21 33 -46 22 -45 136 -169 189 -207 14 -10 51 -30 82 -45 35 -15 61 -34
64 -47 4 -11 6 -21 5 -23 -9 -13 77 -116 143 -171 50 -41 130 -79 181 -86 72
-10 85 -14 85 -31 0 -25 58 -136 88 -170 32 -35 162 -144 173 -144 5 0 34 -16
67 -35 38 -22 78 -36 113 -40 29 -4 59 -11 66 -17 7 -6 22 -42 34 -81 19 -65
20 -86 15 -321 -5 -263 -10 -339 -27 -446 -6 -36 -12 -81 -14 -100 -2 -19 -8
-57 -14 -85 -6 -27 -13 -61 -15 -75 -3 -14 -10 -45 -16 -70 -5 -25 -15 -72
-22 -105 -6 -33 -12 -62 -13 -65 -13 -46 -17 -61 -19 -88 -1 -17 -5 -35 -9
-38 -4 -4 -7 -18 -7 -31 0 -13 -4 -23 -10 -23 -5 0 -10 -9 -10 -20 0 -11 -6
-20 -12 -20 -9 0 -9 -3 1 -9 12 -8 12 -12 2 -25 -8 -9 -11 -16 -7 -16 3 0 0
-16 -8 -35 -8 -19 -12 -35 -9 -35 3 0 0 -6 -6 -14 -7 -8 -14 -27 -17 -41 -5
-28 -39 -115 -73 -190 -41 -87 -61 -135 -61 -144 0 -5 -4 -11 -10 -13 -5 -2
-11 -12 -13 -23 -2 -11 -9 -30 -15 -42 -7 -13 -9 -23 -5 -23 4 0 3 -4 -3 -8
-10 -7 -48 -80 -49 -94 0 -4 -7 -15 -15 -25 -9 -10 -22 -33 -29 -50 -7 -18
-17 -33 -21 -33 -4 0 -10 -8 -13 -17 -7 -21 -56 -106 -66 -113 -14 -11 -40
-68 -34 -74 3 -3 1 -6 -5 -6 -7 0 -12 -7 -12 -15 0 -8 -4 -15 -8 -15 -5 0 -15
-12 -23 -27 -50 -99 -124 -186 -247 -292 -28 -24 -50 -49 -49 -55 5 -25 32
-40 82 -44 46 -4 54 -2 69 19 9 13 16 20 16 15 0 -4 11 6 25 23 38 45 96 101
104 101 4 0 30 24 58 53 27 28 59 59 71 67 12 8 22 20 22 27 0 7 5 13 11 13
12 0 129 120 129 133 0 4 12 20 28 36 42 45 62 70 62 79 0 4 14 21 30 39 17
18 30 34 30 37 0 6 24 37 48 62 7 7 13 17 12 21 0 4 6 15 13 23 7 8 20 31 30
50 10 19 38 62 62 95 24 33 44 66 44 73 1 6 5 12 9 12 8 0 43 54 43 67 0 5 8
16 16 26 9 9 12 17 8 17 -4 0 -1 8 8 18 10 10 14 22 10 25 -3 4 1 15 9 24 19
21 85 179 100 238 5 22 13 49 18 60 4 11 13 33 19 48 6 15 11 39 11 52 0 14 5
25 10 25 6 0 10 11 10 23 0 13 8 39 17 58 10 19 19 45 21 59 2 13 7 29 11 35
4 5 9 28 10 50 2 22 6 45 9 50 4 6 7 19 8 30 1 11 6 38 12 60 6 22 14 67 18
100 9 66 8 64 17 85 3 8 8 49 11 90 6 80 14 135 23 160 8 19 12 98 16 287 2
84 6 156 10 159 3 3 4 29 2 58 -2 28 -7 89 -11 136 -3 47 -8 117 -10 155 -6
129 -15 207 -23 224 -4 9 -9 36 -9 61 -2 71 -13 143 -27 170 -6 14 -13 47 -14
74 -1 27 -6 56 -10 65 -5 9 -8 27 -7 41 1 14 -2 30 -7 37 -5 6 -10 24 -11 40
-2 15 -6 35 -9 43 -7 17 -17 60 -24 108 -3 17 -9 32 -14 32 -5 0 -9 13 -9 29
0 17 -4 32 -8 35 -4 2 -9 24 -11 48 -1 23 -5 45 -9 48 -4 3 -9 19 -11 35 -1
17 -7 35 -13 42 -5 6 -11 22 -12 35 -2 13 -6 30 -9 38 -3 8 -8 31 -11 50 -18
111 -27 172 -32 230 -5 62 -4 67 18 76 41 19 192 65 243 74 44 8 77 17 162 45
13 4 23 11 23 15 0 4 16 11 36 15 20 3 44 10 53 15 9 5 57 22 107 39 51 17
127 47 170 67 227 107 344 166 344 174 0 5 17 14 38 20 49 16 185 93 229 130
7 5 15 10 18 10 4 0 12 6 19 13 7 6 30 26 51 42 21 17 47 38 57 48 10 9 21 17
26 17 4 0 15 8 23 18 9 9 40 37 70 62 30 24 91 80 135 125 175 172 167 167
221 160 26 -4 68 -8 93 -10 25 -2 47 -4 50 -5 15 -6 86 4 160 21 47 11 90 20
95 20 6 1 21 9 35 18 28 19 94 51 105 51 5 0 31 16 60 35 29 18 76 47 106 62
64 34 107 61 133 85 11 10 26 18 33 18 8 0 12 4 9 9 -3 5 8 14 24 21 17 7 30
17 30 22 0 5 4 7 9 3 5 -3 17 2 25 11 9 8 16 12 16 7 0 -4 4 -2 8 4 7 11 107
69 192 111 19 9 37 20 40 23 3 3 22 12 43 18 20 7 37 17 37 22 0 6 4 8 8 5 4
-2 27 9 51 25 24 16 50 29 57 29 7 0 19 6 26 13 12 11 36 22 123 54 22 8 47
20 55 27 8 7 30 13 49 15 19 2 46 7 59 12 14 5 75 16 136 24 61 9 127 18 146
22 73 13 525 1 650 -17 36 -5 97 -12 135 -15 39 -4 84 -10 100 -15 17 -5 57
-11 90 -14 33 -3 92 -12 130 -20 99 -20 186 -29 290 -29 139 0 186 20 330 138
35 28 41 117 11 158 -21 29 -21 29 -1 44 21 16 72 15 335 -8 69 -6 172 -11
230 -10 135 1 399 42 433 68 7 6 42 22 80 38 37 15 67 31 67 35 0 4 8 10 18
12 11 3 23 23 32 49 7 24 17 48 22 54 15 17 8 72 -13 99 -14 18 -16 26 -7 27
7 0 20 2 28 4 8 2 51 11 95 21 44 9 93 23 108 31 16 8 36 16 45 18 10 2 59 15
110 29 50 13 92 23 92 20 0 -2 13 2 30 11 16 8 38 15 50 15 12 0 47 13 78 29
54 28 108 46 125 43 12 -3 142 65 156 82 8 9 31 26 52 38 22 12 39 25 39 30 0
4 6 8 13 8 6 0 26 11 42 25 17 13 35 28 40 32 6 5 26 22 46 38 20 17 48 39 63
49 63 45 171 150 193 187 10 16 22 29 28 29 11 0 71 59 137 135 24 28 46 52
51 53 4 2 7 10 7 18 0 8 5 14 11 14 5 0 7 5 4 10 -3 6 -2 10 3 10 5 0 25 25
43 56 19 31 42 64 52 72 9 9 17 22 17 29 0 7 5 13 10 13 6 0 10 5 10 11 0 5
13 27 29 47 44 57 67 151 41 167 -5 3 -10 14 -10 23 0 9 -12 25 -26 35 -25 19
-27 18 -112 -9 -48 -15 -110 -38 -139 -52 -28 -13 -57 -24 -65 -26 -7 -1 -17
-4 -23 -8 -5 -3 -59 -32 -120 -63 -162 -85 -238 -126 -255 -140 -8 -7 -28 -19
-45 -27 -44 -22 -74 -40 -124 -72 -24 -15 -49 -29 -55 -30 -6 -1 -17 -5 -23
-9 -19 -12 -16 1 8 34 11 16 18 29 14 29 -3 0 6 16 21 35 14 19 23 35 19 35
-4 0 -2 6 4 14 28 34 37 137 17 189 -32 81 -107 106 -174 57 -32 -24 -206
-199 -284 -285 -27 -31 -60 -59 -98 -85 -12 -8 -34 -26 -49 -40 -77 -70 -106
-93 -160 -128 -64 -40 -118 -71 -126 -71 -3 -1 -19 -8 -35 -16 -17 -9 -30 -12
-30 -8 0 5 -4 3 -8 -2 -12 -16 -255 -133 -288 -138 -17 -3 -41 -10 -53 -16
-11 -7 -21 -9 -21 -7 0 3 -11 1 -25 -4 -14 -5 -36 -12 -48 -14 -12 -3 -47 -10
-77 -16 -30 -6 -75 -13 -100 -16 -25 -3 -61 -8 -80 -11 -19 -3 -44 -7 -55 -8
-11 -1 -85 -14 -165 -28 -80 -14 -181 -28 -225 -31 -44 -3 -134 -15 -200 -26
-66 -11 -136 -22 -155 -25 -19 -2 -71 -10 -115 -18 -61 -12 -100 -13 -160 -6
-44 5 -150 11 -235 14 -85 2 -166 7 -180 10 -14 3 -77 8 -140 11 -124 6 -158
8 -290 18 -218 17 -299 20 -485 20 -211 1 -256 -3 -352 -29 -10 -2 -34 -9 -53
-14 -19 -5 -55 -18 -80 -29 -25 -11 -59 -22 -75 -26 -69 -15 -91 -19 -110 -18
-11 1 -40 -6 -65 -15 -25 -8 -61 -19 -80 -24 -93 -21 -127 -31 -147 -44 -11
-8 -63 -28 -115 -46 -51 -17 -100 -37 -108 -45 -9 -8 -21 -10 -29 -5 -11 7
-11 15 0 45 7 20 16 36 19 36 3 0 6 29 5 65 0 36 3 65 6 65 10 0 48 80 43 93
-2 7 0 35 6 62 16 77 22 177 12 200 -5 11 -16 40 -23 65 -7 25 -18 59 -25 75
-7 17 -12 34 -12 38 0 5 -12 24 -27 43 -14 19 -24 34 -20 34 3 0 -14 18 -37
40 -24 22 -46 40 -50 40 -5 0 -8 8 -8 17 0 9 -3 14 -6 11 -3 -3 -19 7 -37 23
-17 16 -41 32 -52 35 -11 4 -42 22 -69 41 -28 19 -63 37 -78 40 -15 3 -28 10
-28 15 0 5 -4 6 -10 3 -6 -3 -10 -2 -10 3 0 9 -80 52 -99 52 -7 0 -26 8 -44
17 -18 9 -43 19 -57 21 -14 2 -34 9 -45 16 -11 7 -65 16 -120 19 -55 4 -122
12 -150 20 -56 15 -142 13 -255 -4 -65 -10 -101 -21 -215 -65 -11 -4 -22 -8
-25 -8 -18 -3 -90 -40 -90 -46 0 -4 -8 -10 -17 -14 -10 -3 -40 -21 -68 -41
-27 -20 -59 -41 -69 -48 -47 -30 -206 -178 -206 -191 0 -8 -73 -75 -82 -76 -7
0 -26 -14 -62 -45 -6 -5 -26 -18 -43 -28 l-31 -17 -90 60 c-49 33 -104 73
-122 90 -18 16 -34 30 -36 30 -6 0 -74 61 -143 128 -36 34 -68 62 -73 62 -4 0
-8 4 -8 9 0 5 -15 25 -32 43 -57 60 -136 168 -123 168 3 0 -3 9 -12 19 -28 31
-39 45 -45 61 -3 8 -29 47 -58 85 -28 39 -63 89 -76 113 -13 23 -36 63 -51 90
-15 26 -26 50 -25 55 1 4 -1 7 -6 7 -4 0 -18 18 -32 40 -14 22 -28 40 -32 40
-5 0 -8 9 -8 20 0 11 -3 20 -8 20 -4 0 -18 18 -32 40 -14 22 -28 40 -32 40 -5
0 -8 9 -8 19 0 11 -4 21 -9 23 -8 3 -65 89 -64 98 0 3 -11 23 -26 45 -15 22
-33 53 -41 68 -8 16 -27 41 -42 58 -15 16 -28 33 -28 38 0 5 -4 11 -8 13 -10
4 -72 94 -72 104 0 4 -16 26 -35 50 -19 23 -35 46 -35 51 0 4 -10 20 -23 35
-12 14 -30 36 -39 47 -10 12 -18 26 -18 31 0 6 -4 10 -10 10 -5 0 -10 6 -10
13 0 7 -9 18 -20 25 -11 7 -20 17 -20 23 0 6 -12 23 -27 39 -16 16 -39 43 -53
61 -14 18 -29 37 -35 43 -5 6 -22 27 -36 46 -15 19 -37 46 -49 60 -12 14 -43
52 -68 85 -26 33 -60 74 -77 91 -16 16 -46 51 -65 77 -19 25 -43 49 -52 52
-10 4 -18 12 -18 20 0 8 -9 17 -20 20 -11 3 -20 10 -20 14 0 4 -8 16 -17 27
-10 11 -40 46 -68 79 -27 33 -68 79 -90 102 -91 94 -135 143 -130 143 6 0
-174 180 -278 278 -37 35 -67 67 -67 72 0 5 -9 12 -20 15 -11 3 -20 12 -20 20
0 8 -9 17 -20 20 -11 3 -20 13 -20 21 0 8 -4 14 -8 14 -4 0 -51 42 -104 93
-52 50 -139 133 -193 182 -54 50 -124 115 -155 145 -249 238 -407 387 -500
470 -102 91 -460 438 -460 446 0 2 -14 17 -31 32 -80 71 -127 120 -122 126 4
3 2 6 -4 6 -17 0 -213 183 -269 250 -33 40 -153 150 -164 150 -6 0 -10 4 -10
10 0 5 -10 20 -22 33 -42 45 -68 79 -68 88 0 5 -4 9 -10 9 -5 0 -10 5 -10 11
0 6 -61 71 -135 145 -74 74 -135 135 -135 138 0 4 -40 51 -77 92 -13 14 -23
28 -23 33 0 4 -38 47 -85 96 -47 48 -85 92 -85 98 0 6 -3 8 -6 4 -4 -3 -27 17
-53 45 -25 29 -60 67 -78 87 -17 19 -38 46 -45 60 -7 14 -21 32 -30 39 -10 7
-18 17 -18 22 0 8 -32 47 -83 101 -9 11 -17 21 -17 24 0 6 -4 12 -51 68 -17
20 -29 37 -25 37 3 0 -13 18 -34 39 -22 22 -40 44 -40 50 0 6 -4 11 -10 11 -5
0 -10 9 -10 20 0 11 -4 20 -9 20 -5 0 -11 8 -14 18 -10 32 -42 76 -92 131 -74
80 -75 81 -88 82 -7 0 -27 2 -45 5 -26 3 -38 -2 -58 -22z"/>
<path d="M13520 880 c0 -5 5 -10 10 -10 6 0 10 5 10 10 0 6 -4 10 -10 10 -5 0
-10 -4 -10 -10z"/>
<path d="M13765 873 c-11 -26 -6 -66 11 -83 14 -13 17 -13 30 4 7 11 11 22 8
25 -4 3 -9 0 -11 -6 -8 -22 -23 -14 -23 11 0 13 7 27 16 30 14 5 14 8 0 21
-19 19 -22 19 -31 -2z"/>
<path d="M13830 836 c0 -31 5 -56 10 -56 6 0 11 10 11 23 1 15 3 17 6 5 5 -20
30 -31 38 -18 4 7 13 6 25 0 22 -12 46 -4 54 16 6 16 -10 19 -19 4 -3 -5 -11
-10 -17 -10 -6 0 -6 6 2 15 10 12 10 19 2 27 -9 9 -18 6 -37 -12 l-25 -23 0
22 c0 18 -4 21 -21 16 -18 -6 -20 -4 -15 13 4 11 2 23 -4 27 -6 4 -10 -13 -10
-49z"/>
<path d="M14312 878 c-16 -16 -15 -73 2 -87 10 -9 16 -8 26 4 11 13 15 13 21
3 5 -7 22 -13 39 -13 31 0 36 5 21 21 -5 5 -11 27 -14 49 -3 34 -5 37 -12 18
-4 -13 -12 -23 -17 -23 -5 0 -20 -12 -33 -26 -27 -29 -35 -13 -10 19 13 18 11
47 -4 47 -4 0 -12 -5 -19 -12z"/>
<path d="M13624 863 c-12 -19 0 -60 20 -75 12 -8 36 9 36 24 0 6 -7 5 -15 -2
-12 -10 -16 -9 -22 5 -4 11 0 22 9 29 13 9 13 13 2 24 -17 15 -17 15 -30 -5z"/>
<path d="M13376 853 c-9 -9 -7 -83 2 -83 21 0 53 34 50 52 -3 21 -40 42 -52
31z"/>
<path d="M13443 834 c-6 -17 6 -46 23 -51 21 -6 37 15 30 41 -7 30 -43 36 -53
10z"/>
<path d="M13514 820 c-6 -20 -7 -37 -2 -39 15 -5 20 6 16 41 l-4 33 -10 -35z"/>
<path d="M13573 842 c-16 -2 -23 -10 -23 -27 0 -13 5 -27 10 -30 6 -3 10 1 10
11 0 13 4 11 20 -7 l19 -24 -6 40 c-3 22 -6 40 -7 40 -1 1 -11 -1 -23 -3z"/>
<path d="M14055 830 c-9 -27 13 -54 30 -40 9 8 15 8 20 0 9 -15 35 7 35 31 0
30 -20 32 -21 2 -2 -23 -2 -24 -6 -5 -5 27 -11 28 -30 5 -14 -17 -14 -17 -9
-1 3 10 1 20 -4 23 -5 3 -12 -4 -15 -15z"/>
<path d="M14155 829 c-8 -24 16 -55 34 -45 6 4 11 20 11 37 0 22 -5 29 -19 29
-11 0 -23 -9 -26 -21z"/>
<path d="M14225 842 c-9 -9 -6 -62 4 -62 5 0 11 9 14 20 3 13 11 18 20 14 19
-7 29 8 13 21 -12 11 -42 15 -51 7z"/>
<path d="M13380 753 c-33 -12 -50 -37 -50 -73 0 -42 19 -64 71 -81 42 -15 61
-28 53 -40 -8 -14 -22 -11 -45 12 -26 26 -79 18 -79 -13 0 -28 55 -76 95 -84
88 -16 142 43 105 116 -16 32 -30 43 -70 57 -60 21 -66 38 -10 29 54 -8 84 7
69 35 -19 35 -95 58 -139 42z"/>
<path d="M13682 753 c-19 -4 -23 -9 -18 -26 14 -58 18 -155 7 -162 -20 -11
-23 0 -30 87 l-6 83 -44 3 -44 3 8 -103 c4 -57 11 -111 16 -120 28 -53 131
-61 178 -14 l25 25 -13 101 c-17 140 -14 135 -79 123z"/>
<path d="M13807 744 c-3 -11 -9 -74 -13 -141 -7 -133 -10 -126 52 -137 l32 -5
6 59 7 60 39 0 c67 0 96 47 70 114 -14 37 -47 54 -121 61 -60 6 -68 5 -72 -11z"/>
<path d="M14042 743 c-16 -3 -22 -9 -18 -20 3 -8 6 -61 6 -117 0 -67 4 -107
13 -117 9 -13 29 -15 95 -11 l83 4 -3 42 -3 41 -42 -2 c-24 -2 -43 2 -43 7 0
6 14 10 30 10 31 0 36 11 24 57 -4 15 -15 23 -38 26 -25 3 -23 4 12 5 47 2 58
16 48 57 -6 24 -10 25 -74 24 -37 -1 -77 -4 -90 -6z"/>
<path d="M14256 625 c-20 -141 -19 -145 41 -145 29 0 33 3 38 38 4 20 7 44 9
52 2 13 20 -21 47 -88 8 -20 14 -23 42 -17 48 11 48 12 23 68 l-23 52 20 27
c16 22 18 33 11 59 -13 46 -49 67 -124 75 l-65 6 -19 -127z"/>
<path d="M13490 443 c-18 -23 -21 -36 -16 -71 6 -42 5 -42 -20 -36 -17 4 -29
2 -34 -6 -12 -20 -30 -2 -30 30 0 22 5 29 21 32 31 4 49 35 29 48 -25 16 -69
11 -90 -10 -14 -14 -20 -33 -20 -66 0 -37 5 -51 29 -75 37 -36 65 -37 100 -1
28 27 28 27 57 10 39 -24 56 -23 82 5 26 28 29 84 7 126 -25 50 -82 56 -115
14z"/>
<path d="M13920 370 l0 -100 35 0 c34 0 35 1 35 37 l0 38 25 -38 c27 -40 35
-43 66 -27 19 11 18 12 -6 48 -16 24 -21 40 -15 46 16 16 11 55 -10 76 -15 15
-33 20 -75 20 l-55 0 0 -100z"/>
<path d="M13636 373 c-3 -48 -3 -90 1 -94 5 -4 33 -10 64 -14 l56 -7 7 33 c5
29 8 31 19 16 21 -28 72 -32 96 -8 32 32 28 83 -10 126 -58 66 -126 37 -117
-50 5 -42 4 -45 -18 -45 -23 0 -24 4 -24 59 0 61 -7 71 -49 71 -15 0 -19 -13
-25 -87z"/>
<path d="M14094 452 c-9 -5 -7 -31 5 -97 l18 -90 -31 -3 c-77 -6 -116 -14
-111 -23 4 -5 -24 -9 -67 -10 -66 -1 -70 -2 -38 -11 44 -12 153 -5 158 10 2 8
28 12 68 12 l64 0 -5 68 c-11 135 -25 169 -61 144z"/>
<path d="M14189 403 c-1 -32 -2 -71 -3 -88 -1 -26 3 -30 27 -33 20 -3 27 1 27
15 1 17 1 17 11 1 6 -12 22 -18 44 -18 l35 0 0 90 0 90 -30 0 c-24 0 -30 -4
-31 -22 l0 -23 -9 23 c-7 16 -18 22 -40 22 -30 0 -30 0 -31 -57z"/>
<path d="M14373 426 c-23 -20 -28 -32 -28 -71 0 -37 5 -51 24 -66 50 -41 111
-12 111 53 0 21 -5 28 -19 28 -11 0 -26 3 -34 6 -9 3 -17 -1 -20 -10 -4 -13
-5 -12 -3 1 1 14 9 17 39 15 31 -2 37 0 37 16 0 24 -31 52 -58 52 -11 0 -34
-11 -49 -24z"/>
</g>
</svg>
